# xmcd
# 
# Track frame offsets:
#     150
#     18564
#     41168
#     59532
# 
# Disc length: 1092
# 
# Revision: 1
# Processed by: cddbd v1.5.2PL0 Copyright (c) Steve Scherf et al.
# Submitted via: BonkEnc v1.0.6
# 
DISCID=33044204
DTITLE=ＪＡＭ　Ｐｒｏｊｅｃｔ - 迷宮のプリズナー
DYEAR=2005
DGENRE=J-pop
TTITLE0=迷宮のプリズナー
TTITLE1=熱風！疾風！サイバスター
TTITLE2=迷宮のプリズナー（ｏｆｆ　ｖｏｃａｌ）
TTITLE3=熱風！疾風！サイバスター（ｏｆｆ　ｖｏｃａｌ）
EXTD=YEAR: 2005
EXTT0=
EXTT1=
EXTT2=
EXTT3=
PLAYORDER=
